<?xml version="1.0" standalone="no"?><!DOCTYPE svg PUBLIC "-//W3C//DTD SVG 1.1//EN" "http://www.w3.org/Graphics/SVG/1.1/DTD/svg11.dtd"><svg t="1613363063433" class="icon" viewBox="0 0 1024 1024" version="1.1" xmlns="http://www.w3.org/2000/svg" p-id="1142" xmlns:xlink="http://www.w3.org/1999/xlink" width="200" height="200"><defs><style type="text/css"></style></defs><path d="M761.192448 927.232H51.560448a56.832 56.832 0 0 1-51.2-60.928 56.832 56.832 0 0 1 51.2-60.928h709.632a56.832 56.832 0 0 1 51.2 60.928 56.832 56.832 0 0 1-51.2 60.928zM512.360448 563.2H51.560448a56.832 56.832 0 0 1-51.2-62.976 56.832 56.832 0 0 1 51.2-60.928h460.8a56.832 56.832 0 0 1 51.2 60.928A56.832 56.832 0 0 1 512.360448 563.2z m460.8-365.568H51.560448a56.832 56.832 0 0 1-51.2-62.976 56.832 56.832 0 0 1 51.2-60.928h921.6a56.832 56.832 0 0 1 51.2 60.928 56.832 56.832 0 0 1-51.2 60.928z" p-id="1143"></path></svg>